<svg width="20" height="18" viewBox="0 0 20 18" fill="none" xmlns="http://www.w3.org/2000/svg">
<path d="M18.972 1.93326H4.3693L4.30996 1.73604H4.30982C4.18049 1.31123 3.90908 0.937655 3.53642 0.671216C3.16377 0.404904 2.71007 0.260131 2.24315 0.258789H0.424041C0.189805 0.258789 0 0.438527 0 0.660341C0 0.88202 0.189805 1.06175 0.424041 1.06175H2.24315C2.52579 1.0627 2.80049 1.15021 3.02621 1.31153C3.25179 1.47285 3.41606 1.69897 3.49441 1.95612L6.06337 10.4924C6.23316 11.0496 6.5892 11.5397 7.07811 11.8891C7.56703 12.2385 8.16242 12.4283 8.77486 12.4301H18.1315C18.3658 12.4301 18.5556 12.2503 18.5556 12.0285C18.5556 11.8069 18.3658 11.6271 18.1315 11.6271H8.77486C8.34657 11.6259 7.93034 11.4931 7.58847 11.2488C7.24663 11.0044 6.99776 10.6618 6.87907 10.272L6.70744 9.70192H16.0005C16.9008 9.70098 17.7638 9.36181 18.4004 8.75903C19.0368 8.15622 19.3948 7.339 19.3958 6.48658V2.33478C19.3958 2.11311 19.206 1.93337 18.9719 1.93337L18.972 1.93326ZM18.5479 6.48668C18.5472 7.12617 18.2785 7.73931 17.8011 8.19155C17.3235 8.64393 16.676 8.89826 16.0005 8.89908H6.46581L5.13223 4.46818H14.2963C14.5305 4.46818 14.7203 4.28844 14.7203 4.06663C14.7203 3.84495 14.5305 3.66522 14.2963 3.66522H4.89056L4.61089 2.73629H18.5481L18.5479 6.48668Z" fill="#1B1A1A"/>
<path d="M8.04718 13.6736C7.5208 13.6736 7.01583 13.8715 6.64361 14.224C6.27139 14.5765 6.06228 15.0545 6.06213 15.553C6.06213 16.0514 6.2711 16.5295 6.64332 16.882C7.01553 17.2344 7.52036 17.4326 8.04674 17.4326C8.57312 17.4326 9.07795 17.2347 9.45017 16.8822C9.82253 16.5298 10.0316 16.0517 10.0316 15.5533C10.0311 15.055 9.82183 14.5773 9.44974 14.2249C9.07781 13.8726 8.57327 13.6743 8.04714 13.6736L8.04718 13.6736ZM8.04718 16.6297C7.74565 16.6297 7.45648 16.5163 7.24326 16.3144C7.03003 16.1125 6.91021 15.8387 6.91021 15.5531C6.91007 15.2676 7.02989 14.9938 7.24311 14.792C7.45634 14.5901 7.74551 14.4766 8.04704 14.4766C8.34857 14.4766 8.63775 14.5901 8.85082 14.792C9.06405 14.9939 9.18372 15.2677 9.18372 15.5533C9.18344 15.8387 9.06348 16.1122 8.85039 16.314C8.63731 16.5158 8.34844 16.6293 8.04716 16.6297L8.04718 16.6297Z" fill="#1B1A1A"/>
<path d="M16.5708 13.6736C16.0445 13.6736 15.5396 13.8715 15.1674 14.224C14.7951 14.5763 14.5859 15.0544 14.5859 15.5528C14.5858 16.0514 14.7949 16.5295 15.1671 16.882C15.5392 17.2344 16.044 17.4326 16.5704 17.4326C17.0968 17.4326 17.6018 17.2347 17.974 16.8822C18.3462 16.5298 18.5553 16.0517 18.5555 15.5533C18.5549 15.055 18.3455 14.5773 17.9735 14.2249C17.6015 13.8726 17.0971 13.6743 16.5708 13.6736L16.5708 13.6736ZM16.5708 16.6297C16.2693 16.6297 15.9801 16.5163 15.7669 16.3144C15.5537 16.1125 15.4339 15.8387 15.4339 15.5531C15.4339 15.2676 15.5537 14.9938 15.7668 14.792C15.98 14.5901 16.2692 14.4766 16.5707 14.4766C16.8722 14.4766 17.1614 14.5901 17.3746 14.792C17.5877 14.9939 17.7075 15.2677 17.7074 15.5533C17.7071 15.8387 17.5873 16.1122 17.3742 16.314C17.1611 16.5158 16.8722 16.6293 16.5709 16.6297L16.5708 16.6297Z" fill="#1B1A1A"/>
<path d="M15.9854 4.35284C16.0652 4.42598 16.1714 4.46751 16.2823 4.46913C16.3392 4.46899 16.3954 4.45811 16.4476 4.43713C16.4983 4.41764 16.5443 4.38901 16.5834 4.35284C16.6234 4.31493 16.655 4.2699 16.6768 4.22043C16.7453 4.07026 16.708 3.89564 16.5834 3.78257C16.5446 3.7452 16.4985 3.71522 16.4478 3.69438C16.2892 3.63052 16.1055 3.66548 15.9854 3.78257C15.8609 3.89576 15.8237 4.07039 15.8923 4.22043C15.9137 4.2699 15.9454 4.31493 15.9854 4.35284L15.9854 4.35284Z" fill="#1B1A1A"/>
</svg>
