<svg width="240" height="33" viewBox="0 0 240 33" fill="none" xmlns="http://www.w3.org/2000/svg">
<path d="M0 0H240V33H0V0Z" fill="#1C1B1B"/>
<path d="M148.351 9.71128C148.144 9.71128 147.975 9.55185 147.975 9.35564C147.975 9.15945 148.144 9 148.351 9H150.775C150.942 9 151.083 9.10269 151.132 9.24548L152.252 12.0149H163.624C163.832 12.0149 164 12.1743 164 12.3706C164 12.4134 163.992 12.4547 163.977 12.4924L161.995 18.7457C161.946 18.8997 161.797 18.9995 161.635 18.9995V19H154.442C154.297 19 154.166 19.0557 154.071 19.1459C153.976 19.236 153.917 19.3602 153.917 19.4969V19.5066C153.917 19.6438 153.976 19.7683 154.071 19.858L154.072 19.857C154.167 19.9472 154.298 20.003 154.442 20.003H160.963C161.171 20.003 161.339 20.1624 161.339 20.3586C161.339 20.5548 161.171 20.7143 160.963 20.7143H154.442C154.091 20.7143 153.772 20.5785 153.54 20.36L153.541 20.3591L153.54 20.3581C153.31 20.1396 153.166 19.8378 153.166 19.506V19.4962C153.166 19.1634 153.31 18.8612 153.54 18.6427C153.771 18.4243 154.09 18.2885 154.442 18.2885H161.357L163.121 12.7258H152.541L154.351 17.1968C154.424 17.3801 154.327 17.5855 154.133 17.6552C153.94 17.725 153.723 17.633 153.649 17.4493L151.652 12.5134C151.647 12.5027 151.643 12.492 151.639 12.4809L150.518 9.7112H148.352L148.351 9.71128ZM159.957 21.5146C160.417 21.5146 160.79 21.8674 160.79 22.3026C160.79 22.7382 160.417 23.091 159.957 23.091C159.498 23.091 159.125 22.7382 159.125 22.3026C159.125 21.8674 159.498 21.5146 159.957 21.5146ZM154.909 21.5146C155.368 21.5146 155.741 21.8674 155.741 22.3026C155.741 22.7382 155.368 23.091 154.909 23.091C154.449 23.091 154.076 22.7382 154.076 22.3026C154.076 21.8674 154.449 21.5146 154.909 21.5146Z" fill="white"/>
<path fill-rule="evenodd" clip-rule="evenodd" d="M118.5 12.0936C118.915 11.4144 119.354 10.8773 119.879 10.4813C120.589 9.94657 121.43 9.6792 122.54 9.6792C123.771 9.6792 124.886 10.1505 125.693 10.9114C126.501 11.6722 127 12.7243 127 13.8843C127 16.639 125.106 17.9991 122.59 19.8046C121.419 20.6449 120.108 21.5858 118.798 22.8212C118.634 22.9752 118.367 22.9752 118.203 22.8212C116.893 21.586 115.582 20.6441 114.412 19.8039C111.894 17.9988 110 16.6381 110 13.8842C110 12.7243 110.5 11.6721 111.307 10.9113C112.114 10.1505 113.229 9.67923 114.46 9.67923C115.57 9.67923 116.411 9.94661 117.121 10.4814C117.646 10.8781 118.085 11.4151 118.5 12.0936L118.5 12.0936ZM120.403 11.0986C119.826 11.5333 119.354 12.2062 118.875 13.109C118.836 13.1829 118.773 13.2454 118.688 13.2851C118.482 13.3828 118.229 13.3033 118.126 13.109C117.647 12.2053 117.175 11.5333 116.599 11.0986C116.045 10.6812 115.37 10.4726 114.461 10.4726C113.462 10.4726 112.556 10.855 111.902 11.4722C111.248 12.0896 110.842 12.9424 110.842 13.8842C110.842 16.2478 112.594 17.5052 114.921 19.1748C116.028 19.9697 117.259 20.8537 118.5 21.9843C119.742 20.8537 120.973 19.9699 122.08 19.1755C124.406 17.5054 126.159 16.247 126.159 13.8843C126.159 12.9426 125.754 12.0896 125.098 11.4723C124.444 10.8551 123.539 10.4727 122.54 10.4727C121.63 10.4727 120.955 10.6813 120.403 11.0987L120.403 11.0986Z" fill="white"/>
<path d="M83.1583 9.86427C83.1583 10.0296 83.0313 10.1649 82.8567 10.18C79.3649 10.3152 76.6349 13.0207 76.6349 16.3274C76.6349 18.2513 77.5713 20.0399 79.1745 21.2122V18.8825C79.1745 18.7172 79.3173 18.5819 79.4919 18.5819C79.6665 18.5819 79.8093 18.7172 79.8093 18.8825V21.8886C79.8093 22.0539 79.6665 22.1892 79.4919 22.1892H76.3174C76.1428 22.1892 76 22.0539 76 21.8886C76 21.7233 76.1429 21.588 76.3174 21.588H78.6506C76.984 20.3104 76 18.3715 76 16.3274C76 12.69 78.9998 9.72905 82.825 9.56372C82.9996 9.56372 83.1424 9.69897 83.1583 9.8643L83.1583 9.86427ZM87.6343 11.0667H89.9675C90.1421 11.0667 90.2849 10.9315 90.2849 10.7661C90.2849 10.6008 90.1421 10.4656 89.9675 10.4656H86.7931C86.6185 10.4656 86.4756 10.6008 86.4756 10.7661V13.7722C86.4756 13.9376 86.6185 14.0728 86.7931 14.0728C86.9677 14.0728 87.1105 13.9376 87.1105 13.7722V11.4425C88.7135 12.6149 89.6501 14.4035 89.6501 16.3274C89.6501 19.619 86.9359 22.3245 83.4599 22.4898C83.2853 22.5048 83.1425 22.6402 83.1583 22.8055C83.1742 22.9708 83.3012 23.0911 83.4758 23.0911H83.4916C87.3009 22.9107 90.2849 19.9498 90.2849 16.3274C90.2849 14.2833 89.3008 12.3444 87.6342 11.0668L87.6343 11.0667Z" fill="white"/>
</svg>
