<svg width="18" height="19" viewBox="0 0 18 19" fill="none" xmlns="http://www.w3.org/2000/svg">
<path d="M11.6701 13.611C10.462 14.4314 8.98448 14.9146 7.38778 14.9146C3.30799 14.9146 0 11.7603 0 7.87002C0 3.97975 3.30799 0.825439 7.38778 0.825439C11.4676 0.825439 14.7756 3.97975 14.7756 7.87002C14.7756 9.81522 13.9491 11.5764 12.6114 12.8512L17.8238 17.8215C18.0628 18.0494 18.0568 18.4149 17.8168 18.6436C17.5753 18.8739 17.191 18.8755 16.9547 18.6502L11.6693 13.6103L11.6701 13.611ZM7.38778 14.0858C10.9877 14.0858 13.9064 11.3028 13.9064 7.87002C13.9064 4.43728 10.9877 1.65421 7.38778 1.65421C3.78781 1.65421 0.86915 4.43728 0.86915 7.87002C0.86915 11.3028 3.78781 14.0858 7.38778 14.0858Z" fill="#1B1A1A"/>
</svg>
