<svg width="85" height="12" viewBox="0 0 85 12" fill="none" xmlns="http://www.w3.org/2000/svg">
<path fill-rule="evenodd" clip-rule="evenodd" d="M4.40593 4.11652C4.53687 4.10346 4.64692 4.02782 4.70058 3.91372L6.50009 0.0805664L8.2996 3.91346C8.35295 4.02757 8.46301 4.10321 8.59425 4.11626L13 4.55241L9.70651 7.35759C9.60847 7.44095 9.56649 7.56346 9.59374 7.68578L10.5171 11.7883L6.68205 9.68884C6.56792 9.62635 6.43187 9.62655 6.31774 9.68884L2.48269 11.7883L3.40605 7.68578C3.43351 7.56356 3.39143 7.44085 3.29349 7.35769L0 4.55251L4.40593 4.11652Z" fill="#F5CC26"/>
<path fill-rule="evenodd" clip-rule="evenodd" d="M22.4059 4.11652C22.5369 4.10346 22.6469 4.02782 22.7006 3.91372L24.5001 0.0805664L26.2996 3.91346C26.353 4.02757 26.463 4.10321 26.5943 4.11626L31 4.55241L27.7065 7.35759C27.6085 7.44095 27.5665 7.56346 27.5937 7.68578L28.5171 11.7883L24.6821 9.68884C24.5679 9.62635 24.4319 9.62655 24.3177 9.68884L20.4827 11.7883L21.406 7.68578C21.4335 7.56356 21.3914 7.44085 21.2935 7.35769L18 4.55251L22.4059 4.11652Z" fill="#F5CC26"/>
<path fill-rule="evenodd" clip-rule="evenodd" d="M40.4059 4.11652C40.5369 4.10346 40.6469 4.02782 40.7006 3.91372L42.5001 0.0805664L44.2996 3.91346C44.353 4.02757 44.463 4.10321 44.5943 4.11626L49 4.55241L45.7065 7.35759C45.6085 7.44095 45.5665 7.56346 45.5937 7.68578L46.5171 11.7883L42.6821 9.68884C42.5679 9.62635 42.4319 9.62655 42.3177 9.68884L38.4827 11.7883L39.406 7.68578C39.4335 7.56356 39.3914 7.44085 39.2935 7.35769L36 4.55251L40.4059 4.11652Z" fill="#F5CC26"/>
<path fill-rule="evenodd" clip-rule="evenodd" d="M58.4059 4.11652C58.5369 4.10346 58.6469 4.02782 58.7006 3.91372L60.5001 0.0805664L62.2996 3.91346C62.353 4.02757 62.463 4.10321 62.5943 4.11626L67 4.55241L63.7065 7.35759C63.6085 7.44095 63.5665 7.56346 63.5937 7.68578L64.5171 11.7883L60.6821 9.68884C60.5679 9.62635 60.4319 9.62655 60.3177 9.68884L56.4827 11.7883L57.406 7.68578C57.4335 7.56356 57.3914 7.44085 57.2935 7.35769L54 4.55251L58.4059 4.11652Z" fill="#F5CC26"/>
<path fill-rule="evenodd" clip-rule="evenodd" d="M76.4059 4.11652C76.5369 4.10346 76.6469 4.02782 76.7006 3.91372L78.5001 0.0805664L80.2996 3.91346C80.353 4.02757 80.463 4.10321 80.5943 4.11626L85 4.55241L81.7065 7.35759C81.6085 7.44095 81.5665 7.56346 81.5937 7.68578L82.5171 11.7883L78.6821 9.68884C78.5679 9.62635 78.4319 9.62655 78.3177 9.68884L74.4827 11.7883L75.406 7.68578C75.4335 7.56356 75.3914 7.44085 75.2935 7.35769L72 4.55251L76.4059 4.11652Z" fill="#F5CC26"/>
</svg>
